<svg width="240" height="222" viewBox="0 0 240 222" fill="none" xmlns="http://www.w3.org/2000/svg">
<path d="M5 100H240V207C240 215.284 233.284 222 225 222H20C11.7157 222 5 215.284 5 207V100Z" fill="#1A9D9A"/>
<path d="M118.25 194.5C127.347 194.498 136.181 191.478 143.347 185.919L165.877 208.266L173.123 201.078L150.594 178.732C156.201 171.623 159.248 162.858 159.25 153.833C159.25 131.411 140.856 113.167 118.25 113.167C95.6436 113.167 77.2499 131.411 77.2499 153.833C77.2499 176.256 95.6436 194.5 118.25 194.5ZM118.25 123.333C135.209 123.333 149 137.013 149 153.833C149 170.654 135.209 184.333 118.25 184.333C101.291 184.333 87.4999 170.654 87.4999 153.833C87.4999 137.013 101.291 123.333 118.25 123.333Z" fill="#FFFFF5"/>
<path d="M125.486 146.646C127.429 148.577 128.5 151.129 128.5 153.833H138.75C138.754 151.162 138.225 148.516 137.192 146.048C136.16 143.581 134.644 141.341 132.733 139.458C124.974 131.772 111.521 131.772 103.767 139.458L111.003 146.656C114.898 142.803 121.612 142.813 125.486 146.646Z" fill="#FFFFF5"/>
<rect x="5" y="70" width="235" height="30" fill="#15ACAA"/>
<path d="M5 100L25.7921 70H55L33.7129 100H5Z" fill="#E4572E"/>
<path d="M128 100L148.792 70H178L156.713 100H128Z" fill="#F5CB5C"/>
<path d="M66 100L86.7921 70H116L94.7129 100H66Z" fill="#6290C3"/>
<path d="M190 100L210.792 70H240L218.713 100H190Z" fill="#548C2F"/>
<rect width="235" height="30" transform="matrix(0.984808 -0.173648 -0.173648 -0.984808 5.20944 70.3516)" fill="#15ACAA"/>
<path d="M-3.21865e-06 40.8073L25.6856 66.7411L54.4498 61.6692L28.2767 35.8214L-3.21865e-06 40.8073Z" fill="#E4572E"/>
<path d="M121.131 19.4486L146.817 45.3823L175.581 40.3104L149.408 14.4627L121.131 19.4486Z" fill="#F5CB5C"/>
<path d="M60.0733 30.2148L85.7589 56.1485L114.523 51.0766L88.3499 25.2289L60.0733 30.2148Z" fill="#6290C3"/>
<path d="M182.189 8.68242L207.875 34.6161L236.639 29.5442L210.466 3.69648L182.189 8.68242Z" fill="#548C2F"/>
</svg>
